# xmcd
#
# Track frame offsets: 
#        150
#        18030
#        33367
#        50636
#        69129
#        87996
#        117879
#        132737
#        147940
#        167404
#
# Disc length: 2758 seconds
#
# Revision: 4
# Processed by: cddbd v1.5.2PL0 Copyright (c) Steve Scherf et al.
# Submitted via: ExactAudioCopyFreeDBPlugin 1.0
#
DISCID=7f0ac40a
DTITLE=AUDIO - AUDIO Jubiläum 2018-01  40 Jahre
DYEAR=2017
DGENRE=Misc
TTITLE0=Blues Company - Red Blood
TTITLE1=Hans Theessink and Terry Evans - Delta Time
TTITLE2=Chris Jones - God Moves On The Water
TTITLE3=Sara K. - Vincent
TTITLE4=Friend N Fellow - I Still Haven't Found What I'm Looking For
TTITLE5=Macy Gray - Nothing Else Matters
TTITLE6=Friedemann - Sentimental Elegance
TTITLE7=Thomas Siffling Trio - Just A Little Song From St. Lucia
TTITLE8=Cincinnati Pops Orchestra, Erich Kunzel - Peter Tschaikowsky: 
TTITLE8=Cassack Dance From Mazeppa
TTITLE9=Cameron Carpenter - J.S. Bach: Toccata und Fuge in D-Moll, BWV
TTITLE9=565
EXTD=AUDIO HiFi-Magazin\nBeilage Heft 2018-01\nJubiläum 40 Jahre AUDIO
EXTD=\n\nKLIPSCH\n
EXTT0=
EXTT1=
EXTT2=
EXTT3=
EXTT4=
EXTT5=
EXTT6=
EXTT7=
EXTT8=
EXTT9=
PLAYORDER=
